PathFileType	4	(X/Y/Z)	/tmp/tmpjnq7zxqp/Me/MarkerData/jogging04_segment_0.trc
DataRate	CameraRate	NumFrames	NumMarkers	Units	OrigDataRate	OrigDataStartFrame	OrigNumFrames
100.091	100.091	9	39	m	100.091	550	1100
Frame#	Time	C7			CLAV			LANK			LASI			LBHD			LELB			LFHD			LFIN			LFRM			LHEE			LKNE			LPSI			LSHO			LTHI			LTIB			LTOE			LUPA			LWRA			LWRB			RANK			RASI			RBAK			RBHD			RELB			RFHD			RFIN			RFRM			RHEE			RKNE			RPSI			RSHO			RTHI			RTIB			RTOE			RUPA			RWRA			RWRB			STRN			T10		
		X1	Y1	Z1	X2	Y2	Z2	X3	Y3	Z3	X4	Y4	Z4	X5	Y5	Z5	X6	Y6	Z6	X7	Y7	Z7	X8	Y8	Z8	X9	Y9	Z9	X10	Y10	Z10	X11	Y11	Z11	X12	Y12	Z12	X13	Y13	Z13	X14	Y14	Z14	X15	Y15	Z15	X16	Y16	Z16	X17	Y17	Z17	X18	Y18	Z18	X19	Y19	Z19	X20	Y20	Z20	X21	Y21	Z21	X22	Y22	Z22	X23	Y23	Z23	X24	Y24	Z24	X25	Y25	Z25	X26	Y26	Z26	X27	Y27	Z27	X28	Y28	Z28	X29	Y29	Z29	X30	Y30	Z30	X31	Y31	Z31	X32	Y32	Z32	X33	Y33	Z33	X34	Y34	Z34	X35	Y35	Z35	X36	Y36	Z36	X37	Y37	Z37	X38	Y38	Z38	X39	Y39	Z39

551	5.495	-0.213613	1.47548	-0.0229861	-0.381157	1.40768	-0.0376676	0.15971	0.238205	0.0483048	-0.289285	1.00106	0.144749	-0.271211	1.60803	0.0542348	-0.365533	1.15043	0.265722	-0.374706	1.68714	0.0321443	-0.5336	1.18386	0.00201	-0.438427	1.10024	0.138372	0.210293	0.2917	-0.00585613	-0.16236	0.477093	0.105102	-0.163717	1.04473	0.0132845	-0.305608	1.47365	0.141548	-0.214615	0.66255	0.142468	0.0481211	0.3396	0.0873057	0.113889	0.0763497	-0.0269667	-0.359625	1.32152	0.237885	-0.442572	1.1558	0.0456956	-0.494895	1.11006	0.0652679	-0.447214	0.107815	-0.104742	-0.299538	0.998933	-0.159185	-0.156295	1.3628	-0.119339	-0.259795	1.60403	-0.0941579	-0.120781	1.2079	-0.328337	-0.363829	1.67358	-0.096699	-0.388667	1.0404	-0.205611	-0.159822	1.13133	-0.30645	-0.384735	0.0479492	-0.045558	-0.41971	0.520255	-0.125121	-0.164467	1.03654	-0.0509827	-0.28641	1.45763	-0.196632	-0.340977	0.832223	-0.187637	-0.406438	0.393187	-0.152907	-0.60089	0.136725	-0.0372729	-0.173206	1.28371	-0.309058	-0.284224	1.09051	-0.199379	-0.285475	1.03123	-0.239797	-0.42261	1.24751	-0.026385	-0.169736	1.27288	0.00770993
552	5.50499	-0.214569	1.47001	-0.0248481	-0.38194	1.4013	-0.0381035	0.160996	0.244103	0.0476837	-0.290134	0.995849	0.144758	-0.271448	1.60238	0.0520412	-0.360103	1.14555	0.26703	-0.374459	1.68206	0.0297954	-0.532165	1.16835	0.00446331	-0.433033	1.09069	0.141624	0.206426	0.299874	-0.0085048	-0.170926	0.469378	0.10738	-0.163047	1.03808	0.0151061	-0.30603	1.46726	0.141391	-0.22123	0.655809	0.143364	0.0453828	0.340444	0.0875244	0.122777	0.0788777	-0.0245243	-0.35726	1.31626	0.237921	-0.440176	1.14399	0.04791	-0.490844	1.09732	0.0692043	-0.436667	0.102817	-0.103189	-0.297318	0.992763	-0.160024	-0.15708	1.35488	-0.122467	-0.259957	1.59804	-0.0962897	-0.127929	1.19537	-0.330697	-0.363643	1.66821	-0.0990582	-0.397507	1.03613	-0.203386	-0.167916	1.12006	-0.307155	-0.373138	0.0490634	-0.0428293	-0.419491	0.516311	-0.125009	-0.163466	1.02959	-0.0491538	-0.286698	1.44991	-0.198821	-0.338779	0.8269	-0.189099	-0.402871	0.38731	-0.152502	-0.592751	0.124665	-0.0385121	-0.179489	1.27048	-0.31098	-0.291923	1.08399	-0.19813	-0.294737	1.02372	-0.23755	-0.422662	1.241	-0.0277277	-0.169486	1.26762	0.00652745
553	5.51498	-0.215536	1.4635	-0.0267035	-0.382579	1.39396	-0.0381672	0.160698	0.249941	0.0469738	-0.290735	0.989648	0.144804	-0.2717	1.59564	0.0498945	-0.353656	1.13978	0.268419	-0.374188	1.67596	0.027521	-0.530608	1.15098	0.00793026	-0.426878	1.07987	0.145469	0.200961	0.307314	-0.0113683	-0.180281	0.460887	0.109998	-0.162241	1.02995	0.0168898	-0.306591	1.46025	0.14091	-0.228404	0.648112	0.144645	0.0413722	0.340667	0.0878483	0.129886	0.0815006	-0.0210223	-0.354212	1.31053	0.238028	-0.437641	1.13091	0.0509192	-0.486203	1.08305	0.0740103	-0.423362	0.0974181	-0.101932	-0.294994	0.986248	-0.160664	-0.157722	1.34584	-0.12598	-0.260279	1.59094	-0.0983933	-0.136083	1.18189	-0.332879	-0.363479	1.66184	-0.101305	-0.407071	1.03141	-0.200884	-0.176951	1.10795	-0.307622	-0.358868	0.0508885	-0.0408724	-0.418149	0.510969	-0.125574	-0.162424	1.02164	-0.0471706	-0.287261	1.44151	-0.200903	-0.336717	0.821876	-0.189729	-0.397973	0.380308	-0.152376	-0.582438	0.108911	-0.0394642	-0.186506	1.25646	-0.312541	-0.300298	1.07705	-0.19672	-0.304812	1.01587	-0.235091	-0.422631	1.23382	-0.0287935	-0.168367	1.26079	0.00488772
554	5.52497	-0.216458	1.45593	-0.0285136	-0.383151	1.38559	-0.0380833	0.158628	0.255614	0.0463211	-0.291203	0.982399	0.145138	-0.271951	1.58801	0.0477774	-0.346259	1.13323	0.269916	-0.373951	1.669	0.0253731	-0.528732	1.13187	0.0125862	-0.420006	1.06788	0.149925	0.194039	0.313817	-0.014213	-0.190309	0.45172	0.112948	-0.161096	1.02063	0.0186501	-0.306965	1.45315	0.139709	-0.236012	0.639604	0.146201	0.0362723	0.340522	0.0882249	0.134776	0.0841664	-0.0170451	-0.350537	1.30417	0.238208	-0.434578	1.11633	0.0545738	-0.480843	1.06734	0.0796439	-0.410008	0.0934259	-0.1014	-0.292364	0.979632	-0.161215	-0.158276	1.33581	-0.129671	-0.260749	1.58291	-0.10046	-0.145125	1.16762	-0.334837	-0.363407	1.65456	-0.103456	-0.417427	1.02678	-0.197922	-0.186955	1.09518	-0.307825	-0.343322	0.0527879	-0.0396753	-0.416368	0.504265	-0.127289	-0.160988	1.01287	-0.0451996	-0.288299	1.43242	-0.20291	-0.33495	0.816528	-0.189061	-0.39241	0.37267	-0.152549	-0.571597	0.0922889	-0.0409779	-0.194153	1.24202	-0.313921	-0.309492	1.06969	-0.195349	-0.315882	1.00801	-0.232391	-0.422476	1.22569	-0.0294856	-0.16621	1.25255	0.00294455
555	5.53496	-0.217298	1.4473	-0.0303135	-0.383653	1.37614	-0.0380434	0.154923	0.261034	0.0456859	-0.291615	0.974091	0.145931	-0.272222	1.5799	0.045643	-0.337989	1.12605	0.27153	-0.373741	1.66162	0.0233958	-0.526563	1.11112	0.0185339	-0.412362	1.05488	0.154936	0.185932	0.319419	-0.0169815	-0.200947	0.442194	0.115859	-0.159355	1.0105	0.0202681	-0.307124	1.44584	0.137643	-0.243831	0.630378	0.147805	0.029922	0.340093	0.0886228	0.137231	0.0870261	-0.012833	-0.34631	1.297	0.238493	-0.430987	1.10043	0.0588695	-0.474665	1.05021	0.0860148	-0.396383	0.0914713	-0.100661	-0.289392	0.972921	-0.161741	-0.158763	1.32496	-0.133423	-0.261359	1.57436	-0.102522	-0.154851	1.15263	-0.336605	-0.363509	1.64685	-0.105499	-0.428571	1.02284	-0.194358	-0.197919	1.08187	-0.307887	-0.326725	0.0547919	-0.0387692	-0.416142	0.497058	-0.12988	-0.158482	1.00366	-0.0434258	-0.289825	1.42262	-0.204918	-0.333761	0.810488	-0.187475	-0.387963	0.366337	-0.153176	-0.56051	0.077884	-0.0415142	-0.202313	1.22733	-0.31518	-0.319269	1.06251	-0.193676	-0.328022	1.00069	-0.229261	-0.422238	1.2165	-0.029695	-0.163615	1.24289	0.000651309
556	5.54495	-0.217939	1.43781	-0.0321721	-0.384083	1.36564	-0.038187	0.149319	0.266269	0.0452142	-0.29174	0.964885	0.147135	-0.27254	1.57195	0.0435968	-0.328951	1.11837	0.273188	-0.373531	1.65449	0.0216023	-0.523924	1.0888	0.0258975	-0.403792	1.04109	0.160401	0.176823	0.324214	-0.0194289	-0.212109	0.432789	0.118102	-0.156767	0.999803	0.0216601	-0.307154	1.43804	0.135381	-0.251749	0.620447	0.149232	0.0219283	0.339364	0.0889559	0.136955	0.0901538	-0.00845971	-0.341527	1.28895	0.238902	-0.426889	1.08336	0.0638678	-0.46753	1.03175	0.0930706	-0.38136	0.0911314	-0.0994979	-0.285742	0.966124	-0.162278	-0.159208	1.31344	-0.13706	-0.262153	1.56591	-0.104546	-0.16508	1.13699	-0.338184	-0.363773	1.63943	-0.107365	-0.44041	1.0201	-0.190151	-0.209765	1.06824	-0.307953	-0.309063	0.0565389	-0.0383722	-0.41956	0.491833	-0.132435	-0.154236	0.994174	-0.0420712	-0.291682	1.41232	-0.207069	-0.332745	0.804685	-0.186147	-0.387502	0.363966	-0.154242	-0.546724	0.0688156	-0.0395842	-0.210817	1.21243	-0.316316	-0.329488	1.05582	-0.191201	-0.341154	0.994105	-0.22586	-0.421766	1.2062	-0.029371	-0.161007	1.23193	-0.00201755
557	5.55495	-0.21794	1.42828	-0.0342574	-0.384609	1.35455	-0.0385834	0.141432	0.271274	0.0451157	-0.291188	0.95522	0.148494	-0.272773	1.56463	0.0416333	-0.319212	1.11039	0.274781	-0.373244	1.64795	0.019985	-0.520687	1.06505	0.0350756	-0.394174	1.02674	0.166265	0.166692	0.328484	-0.0212037	-0.224141	0.424028	0.119417	-0.153226	0.988428	0.0230475	-0.306885	1.43024	0.133941	-0.259863	0.610319	0.150291	0.0119305	0.338363	0.0892997	0.133614	0.0935808	-0.00409075	-0.336297	1.28031	0.239352	-0.422173	1.0652	0.0695346	-0.459253	1.01228	0.100948	-0.363956	0.0916897	-0.0986283	-0.280917	0.959802	-0.162715	-0.159663	1.30134	-0.140302	-0.262993	1.55815	-0.106571	-0.175785	1.12088	-0.339549	-0.364117	1.6327	-0.109034	-0.452841	1.0188	-0.185338	-0.222419	1.05469	-0.307496	-0.29033	0.0578099	-0.0382677	-0.426328	0.490937	-0.134064	-0.148437	0.9839	-0.0408629	-0.293571	1.40194	-0.209474	-0.331206	0.800767	-0.186441	-0.391149	0.364647	-0.155218	-0.528425	0.0656414	-0.037457	-0.219197	1.19719	-0.317348	-0.340355	1.04987	-0.188439	-0.355275	0.98823	-0.22196	-0.421006	1.19497	-0.0285324	-0.158283	1.21992	-0.004889
558	5.56494	-0.217072	1.42018	-0.0368869	-0.385487	1.3438	-0.0391613	0.131213	0.275751	0.0454521	-0.289911	0.945346	0.15011	-0.272742	1.55782	0.039698	-0.308902	1.10241	0.276215	-0.372898	1.64172	0.0185434	-0.51653	1.04011	0.0463823	-0.383369	1.01212	0.172453	0.155499	0.332336	-0.0218659	-0.237766	0.416343	0.12014	-0.149197	0.975847	0.0252015	-0.306171	1.42275	0.1339	-0.268617	0.601385	0.151165	-9.44775e-05	0.337349	0.0898974	0.127089	0.0970822	-0.00011371	-0.33089	1.27182	0.239671	-0.416579	1.04609	0.0758446	-0.449621	0.99205	0.109694	-0.345585	0.092359	-0.0980402	-0.275202	0.954517	-0.162738	-0.160186	1.28888	-0.143042	-0.263749	1.55126	-0.108591	-0.187197	1.10462	-0.340586	-0.364526	1.62643	-0.110543	-0.465719	1.0191	-0.17993	-0.236013	1.04169	-0.306003	-0.271425	0.0584814	-0.0384624	-0.433128	0.492849	-0.135471	-0.14279	0.972125	-0.038756	-0.295254	1.39181	-0.212142	-0.328811	0.798844	-0.188139	-0.395022	0.364807	-0.15587	-0.508925	0.0643166	-0.0374388	-0.227538	1.18183	-0.31797	-0.351834	1.04505	-0.185272	-0.370203	0.98346	-0.21725	-0.420279	1.1831	-0.027305	-0.155259	1.20705	-0.00788418
559	5.57493	-0.216224	1.41405	-0.0400917	-0.387029	1.33435	-0.0395535	0.11907	0.279519	0.0461733	-0.287621	0.935866	0.151724	-0.27255	1.55126	0.0377686	-0.29825	1.0948	0.277459	-0.372616	1.63548	0.0172512	-0.510971	1.01433	0.0598092	-0.371361	0.997498	0.178934	0.143589	0.335565	-0.0216886	-0.253152	0.409979	0.120674	-0.144646	0.962689	0.0292299	-0.305312	1.41519	0.134686	-0.278551	0.595354	0.152303	-0.0139414	0.336343	0.0907887	0.117546	0.100297	0.00318854	-0.325584	1.26438	0.239749	-0.40989	1.02637	0.0827718	-0.438405	0.971322	0.119114	-0.327476	0.0926368	-0.0975825	-0.269506	0.949464	-0.162285	-0.160682	1.2767	-0.145328	-0.264484	1.54486	-0.110545	-0.199617	1.08862	-0.341057	-0.365003	1.62026	-0.111925	-0.478792	1.02119	-0.173912	-0.25076	1.02982	-0.303289	-0.252398	0.0591363	-0.0386204	-0.436683	0.492927	-0.137838	-0.137446	0.960245	-0.0342351	-0.296377	1.38211	-0.214933	-0.325369	0.79644	-0.19035	-0.395553	0.36283	-0.156754	-0.491001	0.0625617	-0.0379413	-0.236316	1.16683	-0.317647	-0.363713	1.04171	-0.181371	-0.385593	0.980348	-0.211533	-0.419081	1.17118	-0.0257023	-0.15213	1.19364	-0.010953
